<svg xmlns="http://www.w3.org/2000/svg" viewBox="0 0 284.51 36.25"><defs><style>.cls-1{fill:#1d1d1c;}.cls-2{fill:#bb3250;}.cls-3{fill:#fff;}</style></defs><g id="Layer_2" data-name="Layer 2"><g id="Layer_1-2" data-name="Layer 1"><g id="Layer_2-2" data-name="Layer 2"><g id="Layer_1-2-2" data-name="Layer 1-2"><g id="MAP"><path id="BLUE" class="cls-1" d="M25.81,5v-.5h0c.09-.08.25,0,.4,0s.33-.23.46-.51c.21.17.39.22.54.13l.05-.2.32.23.68.38a1,1,0,0,0,.75.23c.09,0,.17,0,.2-.07a.29.29,0,0,0,.08-.26c0-.08,0-.12.1-.13a.47.47,0,0,1,.37.4.48.48,0,0,0-.18.33.34.34,0,0,1,.25.39c0-.48.43.09.76.49h.1l.12-.12a.2.2,0,0,1,.21.19s-.18.15-.18.17l.15.27V6.6a.85.85,0,0,0,.17.6l.26.27c.06.13,0,.17,0,.17A.68.68,0,0,0,31,7.8c-.14.07-.18.18,0,.36a.68.68,0,0,1,.21.47c-.15.18,0,.41.31.67a.37.37,0,0,1,.32.24,2.67,2.67,0,0,0,.7,1c.43.14.6.65.93.87.16,0,.23,0,.26.07l.14.26c.09.19.17.25.23.25s.13.14,0,.22a.21.21,0,0,0-.1.28.16.16,0,0,0,0,.07,1.48,1.48,0,0,1,.3.53l.38.37c0,.11,0,.18-.22.13s-.35-.2-.28.17a.66.66,0,0,0-.06.58l.09.26.79,1.07c.19,0,.31.11.22.28l.33.44a3.39,3.39,0,0,0,.64,1.42A17.74,17.74,0,0,1,37.69,20a.55.55,0,0,1,.18.5l.28.51v.15h-.09l-.14-.1-.06-.2c-.44.1-.44.58-.27,1.21.12.34.24.39.67.71l.2.17a.55.55,0,0,0,0-.47.64.64,0,0,1,.39.27c-.06.14-.11.17-.18.11v.25l.34.62a2.09,2.09,0,0,1,.6.94v.49l.54.61a.52.52,0,0,0-.07.58,1.41,1.41,0,0,0,.4.59l.26.31a.28.28,0,0,1-.11.28v.19l.48.49c-.34.18-.33.35,0,.6-.1.18-.28.35-.19.52s.23.43.28.42c.3.19.44.75.3.85-.15-.09-.19.1-.15.5v.35l.35.56v.16c-.07,0-.11,0-.37.2l0,.11a11.57,11.57,0,0,1,.17,1.3l-.17.15-.22.13-.36-.23h-.15c-.13.29-.28.44-.45.43a.21.21,0,0,0-.25.14c-.16.35-.23.26-.39-.06a.36.36,0,0,0-.44,0,.3.3,0,0,1-.42.07l-.07-.07c-.24.18-.46.18-.63-.18-.07-.12-.28-.18-.54-.22s-.38-.15-.32-.28l.26-.22a.32.32,0,0,0,.2-.41.26.26,0,0,0,0-.09c-.3-.61-.62-.81-.79-.85s-.39-.1-.21-.25l.16-.34c-.19.22-.38.47-.56.35l-.13-.17c0-.25.18-.39.42-.58,0-.18,0-.34-.15-.32H36c-.1,0-.1-.07-.27-.62v-.49l-.07-.2-.23-.37c0-.09-.13-.16-.14-.23s0-.27-.22-.25l-.37-.33a.37.37,0,0,0-.43-.27l-.08,0c-.29,0-.27.14,0,.28l.08.16-.49.09c-.12.05-.11.11,0,.17a.7.7,0,0,1,.58-.05c.2.1.28.21.05.31l-.23.21h.27a2.62,2.62,0,0,1,.3-.24c.25.05.25.09.23.32.29.25.4.44.24.54h-.39c-.06,0-.06.08.06.2l.26.1a.18.18,0,0,1,.24-.11h0c.1,0,.07.14-.06.29l-.17.05c-.13.06-.1.07,0,.16.37,0,0,.45.06.42a.37.37,0,0,0,0,.38.56.56,0,0,1-.05.71.78.78,0,0,1-.42.38.33.33,0,0,1-.34-.24c0,.18,0,.24-.26.29l-.88-.15h-.54a.41.41,0,0,1-.38-.25l-.24-.43c-.06-.13-.35-.19-.37-.19-.29-.09-.71-.34-.91-.25a.44.44,0,0,0-.49,0c-.33.41-.64.75-.82.67a1.48,1.48,0,0,1-.9-.44c-.08.1-.22.05-.37-.05.13.12.18.22.1.3-.24.19-.32.12-.58-.14.28.26.35.49,0,.66-.18.06-.25.26-.3.49-.25.13-.44.29-.36.59l-.13.17c0,.07-.1,0-.16,0a.12.12,0,0,0-.14,0c-.06.08,0,.13,0,.17a.12.12,0,0,1,.06.17v0l-.76.63-1.13-.14c-.16-.23-.38.06-.2.21s.08.31-.13.34a.87.87,0,0,0-.51,1.07c.08.27.08.48-.28.37-.52-.54-.79-1.32-1.3-1.38-.07,0-.26,0-.17-.25a.85.85,0,0,0-.21-.41l-.31-.84-.45-1.51-.67-1.58-.3-.47-.31-.29-.6-.44-.59-.23c-.27-.15-.5-.31-.42-.57-.05.3-.22.37-.49.22l-1-.41-.89-.44L14.6,26.7l-1.23-.93-.75-.38-.81-.32a1.84,1.84,0,0,0-1,.05c0,.12-.18.11-.3-.05s-.63-.62-1.08-1.17l.19-.22H25.78V8.79l.5.29c-.17-.27,0-.5.23-.75s.07-.76-.23-1.06c0,0-.47,0-.48-.18s0-.42.26-.55c.07-.06.08-.13,0-.21S25.89,6.09,26,6l.19-.18.1-.19a.59.59,0,0,0,.06-.32A.53.53,0,0,0,26.09,5L25.87,5ZM21.66,34.49c-.13,0-.14.19-.07.55v.15l.08.06h0c.27.06.36-.11.34-.37v-.13A.28.28,0,0,0,21.66,34.49Z"/><path id="RED" class="cls-2" d="M25.81,4.45V5a.34.34,0,0,1,0-.47Zm0,19.23H9.64l.09-.1-.09-.24H9.3a2.78,2.78,0,0,0-1.73-1L7,22.22H6l-.44.37H5.46l-.53-.2L3.81,20.46,3.1,19.7c-.66-.49-1-.65-1.32-1.15-.08-.07-.09-.16,0-.29q.46.1,0-.3a.51.51,0,0,1-.49-.29,1.77,1.77,0,0,0-.94-.59l.15-.52c0-.27.23-.29.54-.12.25,0,.35-.09.37-.21.17-.07.1-.94-.3-1l-.75-.31c-.06,0-.2,0-.15-.12s-.06-.21-.17-.27,0-.15.12-.22L.57,14v-.59a2.25,2.25,0,0,1,.31-1.1,1,1,0,0,0,.1-1,.52.52,0,0,1,.4-.56.32.32,0,0,0,.21-.3c0-.33.25-.41.52-.47a.66.66,0,0,0,.75-.56v0a.76.76,0,0,1,.45-.82.73.73,0,0,0-.08-.71.37.37,0,0,1,.08-.51l.08,0c.09-.3.11-.39-.1-.42s-.1-.28,0-.53c-.06-.33.2-.62.52-.89a.18.18,0,0,0,.05-.24l-.05,0a.52.52,0,0,1-.13-.71l.53-1.51L5.31.41V0L7.65.83l2,2.41A8,8,0,0,0,11.4,5.35l4,1.68a.45.45,0,0,0,.54,0l3.91-1.46a.77.77,0,0,1,.56,0l1.14.75h.64l.57.65,3.08,1.79Zm-14.9-1.76A7.14,7.14,0,0,1,12.32,7.76a7.38,7.38,0,0,1,5,2A8,8,0,1,0,10.49,22,.61.61,0,0,0,10.91,21.92Zm9.15-3.43-2.7-2,1.05-3.26-2.81,2-2.82-2,1.06,3.26-2.73,2h3.43l1,3.34,1-3.34Z"/><path id="WHITE" class="cls-3" d="M10.91,21.92a.68.68,0,0,1-.44.09A8,8,0,1,1,17.36,9.79a7.38,7.38,0,0,0-5-2,7.13,7.13,0,0,0-1.41,14.15Zm7.48-8.71-2.81,2-2.82-2,1.05,3.26-2.72,2h3.43l1.06,3.34,1-3.34H20l-2.68-2Z"/></g></g></g><path class="cls-1" d="M54.05,4.33h2.89V31.69H54.05Z"/><path class="cls-1" d="M94.26,4.33V31.69H91.49V9.8L80.74,28.21H79.37L68.62,9.92V31.69H65.85V4.33h2.38L80.11,24.61,91.88,4.33Z"/><path class="cls-1" d="M131.58,4.33V31.69H128.8V9.8L118.06,28.21h-1.37L105.94,9.92V31.69h-2.77V4.33h2.38l11.88,20.28L129.19,4.33Z"/><path class="cls-1" d="M140.25,20V4.33h2.89V19.88c0,6.49,3.05,9.46,8.37,9.46s8.4-3,8.4-9.46V4.33h2.81V20c0,7.86-4.22,11.92-11.21,11.92S140.25,27.86,140.25,20Z"/><path class="cls-1" d="M174.33,6.83h7.27c5.47,0,8.36,2.5,8.36,6.88s-2.89,6.8-8.36,6.8H171.44V31.69h2.89V23.05h7.34c7,0,11.18-3.52,11.18-9.34s-4.22-9.38-11.18-9.38H171.44v2.5"/><path class="cls-1" d="M199.1,4.33H202V29.19h15.31v2.5H199.1Z"/><path class="cls-1" d="M284.51,4.33V31.69h-2.39L264.54,9.49v22.2h-2.89V4.33H264l17.62,22.2V4.33Z"/><path class="cls-2" d="M239.09,31.89a.8.8,0,0,1-.75-.63l-4.09-15.6-3.77,8.65a.77.77,0,0,1-.65.48.71.71,0,0,1-.69-.39l-2.87-4.93h-7.34a.9.9,0,0,1,0-1.78h7.75a.77.77,0,0,1,.65.4l2.36,4.05,4.05-9.28a.74.74,0,0,1,.76-.49.82.82,0,0,1,.68.63l3.76,14.34,4-23.13a.8.8,0,0,1,.79-.72.84.84,0,0,1,.74.79L245.94,19l2.1-1.2a.74.74,0,0,1,.35-.1h6.2a.9.9,0,0,1,0,1.78h-6l-2.94,1.68a.7.7,0,0,1-.71,0,.9.9,0,0,1-.4-.69l-1-10.29-3.67,21a.81.81,0,0,1-.73.71Z"/></g></g></svg>