<svg id="Design_Elements" data-name="Design Elements" height='50' xmlns="http://www.w3.org/2000/svg" viewBox="0 0 210.28 61.26"><defs><style>.cls-1{fill:#1c3454;}.cls-2{fill:#3472b8;}</style></defs><g id="Layer_2" data-name="Layer 2"><g id="Layer_1-2" data-name="Layer 1-2"><path class="cls-1" d="M217.78,318.26c4.44-1.92,6-4.08,6-11v-28.9h9.06v29.22c0,6.72-1.68,14.7-12.18,17.82Z" transform="translate(-217.78 -264.14)"/><path class="cls-1" d="M267.78,309.14c-2.64,2.16-5.94,3.78-12.42,3.78-10.68,0-16.14-6-16.14-17.7,0-11,6.12-17.52,15.9-17.52,8.66,0,13.6,5.44,13.6,13.74a40.87,40.87,0,0,1-.42,6.06H248.08c.12,5.34,2.52,8.28,8.28,8.28a10.23,10.23,0,0,0,7.42-3.06ZM248.26,291.5H260.2v-.9c0-4-1.68-6.06-5.34-6.06C250.78,284.54,248.38,287.54,248.26,291.5Z" transform="translate(-217.78 -264.14)"/><path class="cls-1" d="M303.88,312.26h-9.1V290.72c0-3.48-1.62-5.52-4.68-5.52a6.23,6.23,0,0,0-5.82,4v23h-9V278.36h7.08l1.8,3.18h.24a12.18,12.18,0,0,1,9.12-4c6.6,0,10.38,3.66,10.38,11.28Z" transform="translate(-217.78 -264.14)"/><path class="cls-1" d="M339.22,310.76c0,9.24-6.48,13.8-15.54,13.8-8.34,0-11.7-2.34-13.62-4.62l5.1-6.66a10.63,10.63,0,0,0,8.52,4c4.68,0,6.66-1.74,6.66-6.54V309h-.24c-1.26,1.14-3.6,1.92-6.66,1.92-7,0-13.32-3.48-13.32-15.66,0-9.54,5.4-17.28,16.5-17.28,5.94,0,9.6.72,12.6,2Zm-12.66-25.68c-4.74,0-7.44,3.3-7.44,9.78,0,7,2.4,8.7,6.42,8.7a6.45,6.45,0,0,0,4.74-1.74V285.68A10.91,10.91,0,0,0,326.56,285.08Z" transform="translate(-217.78 -264.14)"/><path class="cls-1" d="M347.26,278.36h9.06v21.9c0,3.72,1.8,5.64,4.86,5.64a6.2,6.2,0,0,0,5.88-4.08V278.36h9.06v33.9h-7.68l-1.26-3.12h-.24c-2,2.4-4.68,3.78-8.94,3.78-7.22,0-10.74-3.78-10.74-11.78Z" transform="translate(-217.78 -264.14)"/><path class="cls-2" d="M228.22,264.14a5.23,5.23,0,0,1,5.34,5.1,1.5,1.5,0,0,1,0,.3,5.15,5.15,0,0,1-5.19,5.11h-.15a5.11,5.11,0,0,1-5.16-5.06v0a5.18,5.18,0,0,1,5-5.39Z" transform="translate(-217.78 -264.14)"/></g></g><path class="cls-1" d="M383.11,310.1a2.33,2.33,0,0,1,4.66,0,2.33,2.33,0,1,1-4.66,0Z" transform="translate(-217.78 -264.14)"/><path class="cls-1" d="M412.13,304.87v7.39h-3.75v-6.81c0-2.09-.93-3.05-2.44-3.05-1.69,0-2.86,1.08-2.86,3.38v6.48h-3.75v-6.81c0-2.09-.88-3.05-2.44-3.05s-2.84,1.08-2.84,3.38v6.48h-3.74V299.35h3.58v1.49a5.24,5.24,0,0,1,4.05-1.68,4.83,4.83,0,0,1,4.25,2.11,5.8,5.8,0,0,1,4.66-2.11C409.92,299.16,412.13,300.94,412.13,304.87Z" transform="translate(-217.78 -264.14)"/><path class="cls-1" d="M428.06,299.35l-5.83,13.71c-1.25,3.12-3,4.05-5.35,4.05a5.75,5.75,0,0,1-3.6-1.17l1.37-2.67a3.26,3.26,0,0,0,2.11.82c1,0,1.61-.46,2.11-1.61l.05-.12-5.59-13h3.86l3.62,8.76,3.65-8.76Z" transform="translate(-217.78 -264.14)"/></svg>