<svg xmlns="http://www.w3.org/2000/svg" viewBox="0 0 379.73 51.41"><defs><style>.cls-1{fill:#313750;}.cls-2{fill:#f2a08d;}</style></defs><g id="Layer_2" data-name="Layer 2"><g id="Layer_1-2" data-name="Layer 1"><path class="cls-1" d="M19.08,0A17.18,17.18,0,0,1,31.61,5a16.54,16.54,0,0,1,5.11,12.24,16.54,16.54,0,0,1-5.11,12.24,17.18,17.18,0,0,1-12.53,5H11.52V50.4H0V0Zm0,23.76a5.69,5.69,0,0,0,4.39-1.87,6.55,6.55,0,0,0,1.73-4.61,6.57,6.57,0,0,0-1.73-4.61,5.69,5.69,0,0,0-4.39-1.87H11.52v13Z"/><path class="cls-1" d="M72.58,45.9A18.5,18.5,0,0,1,59,51.41,18.5,18.5,0,0,1,45.5,45.9,18.31,18.31,0,0,1,40,32.4,18.31,18.31,0,0,1,45.5,18.9,18.5,18.5,0,0,1,59,13.39,18.5,18.5,0,0,1,72.58,18.9a18.31,18.31,0,0,1,5.54,13.5A18.31,18.31,0,0,1,72.58,45.9ZM53.14,38.52a8.5,8.5,0,0,0,11.8,0,8.25,8.25,0,0,0,2.38-6.12,8.27,8.27,0,0,0-2.38-6.12,8.5,8.5,0,0,0-11.8,0,8.27,8.27,0,0,0-2.38,6.12A8.25,8.25,0,0,0,53.14,38.52Z"/><path class="cls-1" d="M119,33.7l5.18-19.3h11.52L125.31,46.94m0,0L124.2,50.4H114.12l-5.76-19.22L102.6,50.4H92.52L81,14.4H92.52l5.19,19.3,5.61-19.3H113.4L119,33.7"/><path class="cls-1" d="M161.28,0a17.18,17.18,0,0,1,12.53,5,16.54,16.54,0,0,1,5.11,12.24,16.54,16.54,0,0,1-5.11,12.24,17.18,17.18,0,0,1-12.53,5h-7.56V50.4H142.2V0Zm0,23.76a5.71,5.71,0,0,0,4.39-1.87,6.55,6.55,0,0,0,1.73-4.61,6.57,6.57,0,0,0-1.73-4.61,5.71,5.71,0,0,0-4.39-1.87h-7.56v13Z"/><path class="cls-1" d="M214.78,45.9a19.39,19.39,0,0,1-27.08,0,18.31,18.31,0,0,1-5.54-13.5,18.31,18.31,0,0,1,5.54-13.5,19.39,19.39,0,0,1,27.08,0,18.31,18.31,0,0,1,5.54,13.5A18.31,18.31,0,0,1,214.78,45.9Zm-19.44-7.38a8.5,8.5,0,0,0,11.8,0,8.25,8.25,0,0,0,2.38-6.12,8.27,8.27,0,0,0-2.38-6.12,8.5,8.5,0,0,0-11.8,0A8.27,8.27,0,0,0,193,32.4,8.25,8.25,0,0,0,195.34,38.52Z"/><path class="cls-1" d="M245.52,51.41a18.64,18.64,0,0,1-19.08-19,18.64,18.64,0,0,1,19.08-19,18.72,18.72,0,0,1,9.54,2.52,17.89,17.89,0,0,1,6.73,6.7l-9.43,5.47q-2-4-7-4a7.85,7.85,0,0,0-5.84,2.34,8.22,8.22,0,0,0-2.3,6,8.22,8.22,0,0,0,2.3,6,7.85,7.85,0,0,0,5.84,2.34q5.1,0,7-4l9.43,5.4a17.75,17.75,0,0,1-6.69,6.77A18.68,18.68,0,0,1,245.52,51.41Z"/><path class="cls-1" d="M302.47,50.4H290.23L278.71,34.52V50.4h-10.8V0h10.8V30.17l10.8-15.77h12.6L289,32.4Z"/><path class="cls-1" d="M315.72,36.72q1.88,5,8.64,5A8.91,8.91,0,0,0,331.27,39l8.64,5q-5.32,7.42-15.7,7.42-9.06,0-14.5-5.4a18.37,18.37,0,0,1-5.44-13.61,18.49,18.49,0,0,1,19.15-19,17.39,17.39,0,0,1,13.07,5.44,18.82,18.82,0,0,1,5.22,13.57,20.41,20.41,0,0,1-.43,4.32Zm-.22-8.06H331Q329.41,23,323.35,23,317.1,23,315.5,28.66Z"/><path class="cls-1" d="M364,40.25a2.56,2.56,0,0,1-1.73-2.74V25.8h0V13.88h0V4.32l-10.8,3.24V14.4h-5.76V24.77h5.76V37.51q0,7.85,4,10.91t14.26,2V40.61A17.15,17.15,0,0,1,364,40.25Z"/><circle class="cls-2" cx="372.73" cy="18.84" r="7"/></g></g></svg>