<svg height="50px" xmlns="http://www.w3.org/2000/svg" viewBox="0 0 108.57 26.78"><defs><style>.cls-1{fill:#e9327c;}.cls-2{fill:#1dace3;}.cls-3{fill:#001a49;}.cls-4{isolation:isolate;}</style></defs><g id="Layer_2" data-name="Layer 2"><g id="Layer_1-2" data-name="Layer 1"><g id="Layer_2-2" data-name="Layer 2"><g id="Layer_1-2-2" data-name="Layer 1-2"><g id="Layer_2-2-2" data-name="Layer 2-2"><g id="Layer_1-2-2-2" data-name="Layer 1-2-2"><path class="cls-1" d="M19,22.19,1.06,9.82C-.76,8.56-.14,6,2.13,5.34L21.2.16a2.7,2.7,0,0,1,3.45,1.61h0a2.35,2.35,0,0,1,.16.87L23.68,20.2C23.55,22.29,20.82,23.44,19,22.19Z"/><path class="cls-2" d="M13.31,25.25,2.74,4.58A2.91,2.91,0,0,1,4,.7,2.8,2.8,0,0,1,5.75.42l19.59,3a2.88,2.88,0,0,1,2.42,3.26v0h0a2.71,2.71,0,0,1-.29.87l-9,17.65a2.88,2.88,0,0,1-3.89,1.24,3,3,0,0,1-1.24-1.24Z"/><path class="cls-3" d="M24.76,3.35,15,1.84,3,5.1l4.8,9.36L19,22.19a2.73,2.73,0,0,0,.81.38l4.25-8.32Z"/><circle class="cls-3" cx="106.3" cy="5.7" r="2.27"/><g class="cls-4"><g class="cls-4"><path class="cls-3" d="M43.75,20.69a8.34,8.34,0,0,1-1.89.74,7.83,7.83,0,0,1-2.07.27,8.13,8.13,0,0,1-3.22-.65,8.31,8.31,0,0,1-2.64-1.78,8.47,8.47,0,0,1-1.78-2.64,8.42,8.42,0,0,1,0-6.44,8.36,8.36,0,0,1,4.42-4.41,8.42,8.42,0,0,1,6.44,0,8.54,8.54,0,0,1,2.63,1.78,8.37,8.37,0,0,1,1.78,2.63,8.07,8.07,0,0,1,.65,3.23,7.78,7.78,0,0,1-.45,2.66,9.09,9.09,0,0,1-1.21,2.31l2.26,3.07h-4.3Zm.5-7.27a5.33,5.33,0,0,0-.32-1.85A4.56,4.56,0,0,0,43,10.06a4.31,4.31,0,0,0-3.21-1.4A4.24,4.24,0,0,0,38,9a4.08,4.08,0,0,0-1.4,1,4.85,4.85,0,0,0-.9,1.51,5.48,5.48,0,0,0,0,3.69,5,5,0,0,0,.9,1.52,4.21,4.21,0,0,0,3.2,1.39,4.3,4.3,0,0,0,1.8-.37,4.47,4.47,0,0,0,1.41-1,4.71,4.71,0,0,0,.93-1.52A5.31,5.31,0,0,0,44.25,13.42Z"/><path class="cls-3" d="M54.45,16.92v4.54H50.58V5.35l6.56,0a6.55,6.55,0,0,1,4.44,1.35c1,.91,1.53,2.38,1.53,4.43A4.73,4.73,0,0,1,62,14.38a5.05,5.05,0,0,1-2.92,1.56l4.54,5.54-4.63,0-3.46-4.54Zm4.82-5.86a3.25,3.25,0,0,0-.18-1.14,1.83,1.83,0,0,0-.5-.75,2.18,2.18,0,0,0-.74-.42A2.85,2.85,0,0,0,57,8.62H54.5v4.94h2.25A2.21,2.21,0,0,0,59,12.31,3,3,0,0,0,59.27,11.06Z"/></g><g class="cls-4"><path class="cls-3" d="M69.11,21.48H65.54v-18h3.57Z"/></g><g class="cls-4"><path class="cls-3" d="M85.72,14.66v6.82h-3.6l.07-1a5.7,5.7,0,0,1-3.69,1.35,7,7,0,0,1-2.81-.56,7.33,7.33,0,0,1-2.31-1.55,7.15,7.15,0,0,1-1.54-2.3,7.21,7.21,0,0,1,0-5.62,7.15,7.15,0,0,1,1.54-2.3A7.33,7.33,0,0,1,75.69,8,7.31,7.31,0,0,1,81.3,8a7.23,7.23,0,0,1,3.86,3.85,7.19,7.19,0,0,1,.56,2.81Zm-3.53,0a3.5,3.5,0,0,0-.29-1.44,3.72,3.72,0,0,0-2-2,3.67,3.67,0,0,0-4.06.8,3.79,3.79,0,0,0-.78,1.18,3.75,3.75,0,0,0,0,2.89,3.49,3.49,0,0,0,.78,1.16,3.83,3.83,0,0,0,1.17.79,3.75,3.75,0,0,0,2.89,0,4,4,0,0,0,1.18-.79,3.62,3.62,0,0,0,1.08-2.61Z"/></g><g class="cls-4"><path class="cls-3" d="M88.17,14.38V3.91h3.58l0,4.87a3.81,3.81,0,0,1,.69-.57,5.79,5.79,0,0,1,.92-.52,6.29,6.29,0,0,1,1-.36,4.69,4.69,0,0,1,1-.13,7.16,7.16,0,0,1,2.81.56,7.48,7.48,0,0,1,2.31,1.54A7.1,7.1,0,0,1,102,11.59a7.21,7.21,0,0,1,0,5.62,7.15,7.15,0,0,1-1.54,2.3,7.33,7.33,0,0,1-2.31,1.55,7.33,7.33,0,0,1-5.62,0,7.15,7.15,0,0,1-3.82-3.85,7,7,0,0,1-.57-2.81Zm3.53,0A3.67,3.67,0,0,0,92,15.84,3.82,3.82,0,0,0,92.78,17a3.89,3.89,0,0,0,1.17.79,3.53,3.53,0,0,0,1.42.29,3.6,3.6,0,0,0,1.44-.29A3.82,3.82,0,0,0,98,17a3.72,3.72,0,0,0,1.08-2.62A3.67,3.67,0,0,0,98,11.81,3.65,3.65,0,0,0,96.81,11a3.43,3.43,0,0,0-1.44-.29A3.37,3.37,0,0,0,94,11a3.72,3.72,0,0,0-1.17.79A3.77,3.77,0,0,0,92,13,3.61,3.61,0,0,0,91.7,14.4Z"/></g></g></g></g></g></g></g></g></svg>