<svg xmlns="http://www.w3.org/2000/svg" viewBox="0 0 346.77 97.15"><defs><style>.cls-1{fill:#3272b7;}.cls-2{fill:#1b3453;}.cls-3{fill:#27588e;}.cls-4{fill:#82928f;}.cls-5{fill:#376738;}</style></defs><g id="Layer_2" data-name="Layer 2"><g id="Layer_1-2" data-name="Layer 1"><path class="cls-1" d="M302.72,46.85l18.63-14.94h24.43l.3.81-37.4,30.6,38.09,31.43H321.1c-6.18-4.45-11.79-10.19-18.45-14.59a1.82,1.82,0,0,1-.29-.93c.33-10.44.43-20.88-.06-31.32Z"/><path class="cls-2" d="M198.74,68.05c-2.67-16.56,7.56-30.83,21.46-35.86a32.64,32.64,0,0,1,38.68,13.5c-1.08,1.74-3.07,1.7-4.69,2.34-4.53,1.79-9.12,3.46-13.68,5.18h-1.08c-9.11-6-18.77-2.35-20.88,7.86a1.37,1.37,0,0,0-1.12,1C210.85,63,205.1,66.45,198.74,68.05Z"/><path class="cls-2" d="M117.18,68a32.79,32.79,0,0,1,60.43-21.92c-5.87,2.9-12.47,4-18.19,7.26l-1.62-.25c-8.34-6.64-19.5-1-21,7.83l-.46,1C129.58,62.82,123.72,66.48,117.18,68Z"/><path class="cls-2" d="M302.72,46.85l-.42,1.06A31.85,31.85,0,0,0,296.12,52c-4.49,3.3-8.06,7.81-13.32,10.1V0h19.92Z"/><path class="cls-2" d="M67.65,31.19H98.86V63.7H67.8A224.7,224.7,0,0,1,67.65,31.19Z"/><path class="cls-2" d="M141.66,74c9,4.72,15,3,21.09-6.51l18.51,5.82C176.66,86,168.07,93.6,155.33,95.91c-13.79,2.49-26.58-3.76-33.86-15.77,1.73.15,3.15-.83,4.72-1.29C131.38,77.35,136.13,74.42,141.66,74Z"/><path class="cls-2" d="M31.52,97H0V65H31.58Z"/><path class="cls-2" d="M33.49,63.09c-.65-10.47-.18-20.93-.25-31.74H65.38V63.09Z"/><path class="cls-2" d="M64.59,97.1,33.66,97V65.41c10.56,0,20.64,0,30.71,0,.45,0,.89.43,1.33.65l0,30.15Z"/><path class="cls-2" d="M223.34,74.05c8.87,4.72,14.47,3,20.95-6.57l18.45,5.85c-4.68,12.81-13.37,20.73-26.43,22.57-14.24,2-25.68-3.25-33.4-15.74a11.45,11.45,0,0,0,3.32-.81c5.54-1.48,10.52-4.68,16.32-5.31l.39.08Z"/><path class="cls-2" d="M302.36,79.23a1.82,1.82,0,0,0,.29.93V94.92h-19.1l-.76-.82v-29c2.06.23,3.5,1.51,5.07,2.72C292.73,71.57,296.94,76.16,302.36,79.23Z"/><path class="cls-3" d="M302.36,79.23c-5.42-3.07-9.63-7.66-14.5-11.42-1.57-1.21-3-2.49-5.07-2.72a5.35,5.35,0,0,1,0-3c5.26-2.29,8.83-6.8,13.32-10.1a31.85,31.85,0,0,1,6.18-4.06C302.79,58.35,302.69,68.79,302.36,79.23Z"/><path class="cls-1" d="M223.34,74.05l-.4.07-.39-.08c-3.21-3.35-3.61-7.91-5.12-12a1.37,1.37,0,0,1,1.12-1c7-2.44,14.17-4.59,20.88-7.86h1.08c1.92,3.74,4.64,7.21,4.05,11.82-5.78,2.17-11.58,4.29-17.33,6.53C225.81,72.12,223.86,72,223.34,74.05Z"/><path class="cls-1" d="M136.31,61.91l.46-1c7.23-2,14.38-4.25,21-7.83l1.62.25c1.48,3.8,4.09,7.3,3.18,11.74-6.78,3.28-14.07,5.22-21,8C137.37,70.51,136.7,66.27,136.31,61.91Z"/><path class="cls-3" d="M162.6,65.06c.91-4.44-1.7-7.94-3.18-11.74,5.72-3.28,12.32-4.36,18.19-7.26,3,3.23,3.84,7.39,5.14,12.13C176,60.52,169.65,63.75,162.6,65.06Z"/><path class="cls-3" d="M136.31,61.91c.39,4.36,1.06,8.6,5.26,11.17a2.44,2.44,0,0,0,.09.93c-5.53.41-10.28,3.34-15.47,4.84-1.57.46-3,1.44-4.72,1.29A20.39,20.39,0,0,1,117.18,68C123.72,66.48,129.58,62.82,136.31,61.91Z"/><path class="cls-3" d="M217.43,62.06c1.51,4.07,1.91,8.63,5.12,12-5.8.63-10.78,3.83-16.32,5.31a11.45,11.45,0,0,1-3.32.81c-2.62-3.61-4.33-7.54-4.17-12.11C205.1,66.45,210.85,63,217.43,62.06Z"/><path class="cls-3" d="M244.56,65c.59-4.61-2.13-8.08-4.05-11.82,4.56-1.72,9.15-3.39,13.68-5.18,1.62-.64,3.61-.6,4.69-2.34a20.52,20.52,0,0,1,4.79,12.8C257.12,60.55,251.16,63.68,244.56,65Z"/><path class="cls-4" d="M65.7,66.08c-.44-.22-.88-.64-1.33-.65-10.07,0-20.15,0-30.71,0V97l-2.14,0,.06-32,1.91-1.94H65.38V31.35l2.27-.16A224.7,224.7,0,0,0,67.8,63.7C66.6,64.05,66.36,65.26,65.7,66.08Z"/><path class="cls-5" d="M282.79,94.1l.76.82C282.88,95,282.59,94.79,282.79,94.1Z"/><path class="cls-4" d="M64.59,97.1l1.14-.87C65.75,97.05,65.31,97.26,64.59,97.1Z"/></g></g></svg>